<svg width="250" height="250" viewBox="0 0 250 250" fill="none" xmlns="http://www.w3.org/2000/svg">
<rect width="250" height="250" rx="125" fill="white"/>
<g clip-path="url(#clip0_634_32491)">
<path d="M205.066 48.0859C205.106 48.0859 205.077 48.1528 204.981 48.2822C204.224 51.9502 204.713 106.066 205.066 133.594L228.362 157.711L222.891 159.694C187.003 172.7 153.76 192.082 124.766 216.909C96.046 192.085 63.0498 172.693 27.3887 159.681L21.9922 157.711L45.5615 133.594V48.0859L94.0703 96.5947H156.558C172.34 81.1609 202.987 50.9964 204.981 48.2822C205.008 48.1527 205.036 48.0862 205.066 48.0859ZM169.693 111.945C150.805 123.215 133.642 137.154 118.738 153.33L98.7314 136.887L90.5098 143.738L123.671 181.285C137.479 157.302 154.795 135.517 175.044 116.653L176.565 115.235L173.825 109.48L169.693 111.945Z" fill="#090909"/>
<path d="M98.7375 136.887L90.5156 143.738L123.677 181.285C137.486 157.302 154.801 135.518 175.05 116.654L176.572 115.236L173.831 109.48L169.7 111.946C150.811 123.215 133.648 137.154 118.744 153.331L98.7375 136.887Z" fill="white"/>
</g>
<defs>
<clipPath id="clip0_634_32491">
<rect width="205" height="205" fill="white" transform="translate(22 30)"/>
</clipPath>
</defs>
</svg>
