<svg width="49" height="49" viewBox="0 0 49 49" fill="none" xmlns="http://www.w3.org/2000/svg">
<g clip-path="url(#clip0_522_6219)">
<path d="M42.8984 5.10974C42.9074 5.10995 42.9008 5.12579 42.8789 5.15564C42.7028 6.00969 42.8164 18.5958 42.8984 24.9984L48.3164 30.6078L47.0439 31.0687C38.6968 34.0936 30.9647 38.6019 24.2207 44.3763C17.5408 38.6026 9.8657 34.0924 1.57129 31.0658L0.316406 30.6078L5.79883 24.9984V5.10974L17.0811 16.3929H31.6152C35.2862 12.8031 42.4151 5.78684 42.8789 5.15564C42.8851 5.12545 42.8915 5.10974 42.8984 5.10974ZM34.6689 19.9623C30.2755 22.5836 26.283 25.8258 22.8164 29.5883L18.1631 25.7631L16.251 27.3568L23.9639 36.0902C27.1756 30.512 31.2034 25.4446 35.9131 21.057L36.2666 20.7269L35.6299 19.389L34.6689 19.9623Z" fill="#F7F7F8"/>
</g>
<defs>
<clipPath id="clip0_522_6219">
<rect width="48" height="48" fill="white" transform="translate(0.316406 0.609741)"/>
</clipPath>
</defs>
</svg>
