<svg width="49" height="49" viewBox="0 0 49 49" fill="none" xmlns="http://www.w3.org/2000/svg">
<g clip-path="url(#clip0_522_6224)">
<path d="M43.4863 5.10974C43.4953 5.10995 43.4887 5.12579 43.4668 5.15564C43.2907 6.00969 43.4042 18.5958 43.4863 24.9984L48.9043 30.6078L47.6318 31.0687C39.2847 34.0936 31.5525 38.6019 24.8086 44.3763C18.1287 38.6026 10.4536 34.0924 2.15918 31.0658L0.904297 30.6078L6.38672 24.9984V5.10974L17.6689 16.3929H32.2031C35.8741 12.8031 43.0029 5.78684 43.4668 5.15564C43.473 5.12545 43.4794 5.10974 43.4863 5.10974ZM35.2568 19.9623C30.8634 22.5836 26.8709 25.8258 23.4043 29.5883L18.751 25.7631L16.8389 27.3568L24.5518 36.0902C27.7635 30.512 31.7913 25.4446 36.501 21.057L36.8545 20.7269L36.2178 19.389L35.2568 19.9623Z" fill="#090909"/>
</g>
<defs>
<clipPath id="clip0_522_6224">
<rect width="48" height="48" fill="white" transform="translate(0.904297 0.609741)"/>
</clipPath>
</defs>
</svg>
